<svg width="201" height="31" viewBox="0 0 201 31" fill="none" xmlns="http://www.w3.org/2000/svg">
<path d="M34.543 7.80971C35.8106 7.7788 36.8944 7.75562 37.7943 7.74017C38.6941 7.72471 39.418 7.71698 39.9657 7.71698C41.6716 7.71698 43.0135 8.06857 43.9917 8.77174C44.9698 9.47492 45.4589 10.5297 45.4589 11.936C45.4589 12.616 45.2632 13.2496 44.872 13.8369C44.4807 14.4242 43.9799 14.8492 43.3696 15.1119C43.7608 15.2355 44.1325 15.4326 44.4846 15.703C44.8368 15.9735 45.138 16.2903 45.3884 16.6535C45.6388 17.0166 45.8384 17.4107 45.987 17.8357C46.1357 18.2607 46.2101 18.6973 46.2101 19.1455C46.2101 20.7373 45.6975 21.9157 44.6724 22.6807C43.6474 23.4457 42.1958 23.8282 40.3178 23.8282C39.7388 23.8282 38.9719 23.8204 38.0173 23.805C37.0626 23.7895 35.9045 23.7663 34.543 23.7354L34.3787 23.5732V7.97198L34.543 7.80971ZM40.0361 16.7114H38.0877V21.2318C38.4946 21.2164 38.9524 21.2164 39.461 21.2318C39.9696 21.2473 40.443 21.2086 40.8812 21.1159C41.3194 21.0232 41.6872 20.7991 41.9846 20.4437C42.2819 20.0882 42.4306 19.5937 42.4306 18.96C42.4306 18.3573 42.2389 17.8319 41.8554 17.3837C41.472 16.9355 40.8656 16.7114 40.0361 16.7114ZM38.0877 10.3365V14.0687H39.7544C40.5056 14.0687 41.0338 13.8871 41.339 13.524C41.6442 13.1608 41.7968 12.7165 41.7968 12.191C41.7968 11.6656 41.6403 11.229 41.3273 10.8813C41.0143 10.5335 40.49 10.3597 39.7544 10.3597H38.8037C38.8037 10.3597 38.565 10.352 38.0877 10.3365ZM52.7126 20.3741C52.2901 20.3741 51.9771 20.3664 51.7736 20.3509L50.7642 23.7123C50.3886 23.805 49.8643 23.8513 49.1914 23.8513C48.4402 23.8513 47.8298 23.7663 47.3603 23.5963L47.243 23.4109L52.4075 7.85607C53.0178 7.76335 53.7299 7.71698 54.5437 7.71698C55.467 7.71698 56.2026 7.77107 56.7503 7.87925L61.8209 23.4573C61.2732 23.7509 60.655 23.8977 59.9664 23.8977C59.1526 23.8977 58.5814 23.7586 58.2527 23.4804C57.9241 23.2023 57.6424 22.6691 57.4076 21.8809L56.9616 20.3509C56.7582 20.3664 56.453 20.3741 56.0461 20.3741H52.7126ZM52.6422 17.4532L53.5812 17.4301H55.2949C55.3731 17.4301 55.5101 17.4339 55.7057 17.4416C55.9013 17.4494 56.0461 17.4532 56.14 17.4532L55.7409 16.016C55.3653 14.7178 54.9349 13.126 54.4498 11.2406H54.3089C54.1837 11.9051 53.8081 13.381 53.1821 15.6683L52.6422 17.4532ZM72.1734 14.1615V13.8833C72.1734 11.596 71.3126 10.4524 69.5911 10.4524C68.6052 10.4524 67.8931 10.8967 67.4549 11.7853C67.0167 12.674 66.7976 13.9837 66.7976 15.7146C66.7976 17.4301 67.0715 18.705 67.6192 19.5396C68.167 20.3741 68.9651 20.7914 70.0137 20.7914C70.5614 20.7914 71.1679 20.6639 71.833 20.4089C72.4981 20.1539 73.2219 19.7482 74.0044 19.1919C74.3957 19.4546 74.7596 19.8139 75.096 20.2698C75.4325 20.7257 75.6399 21.1623 75.7181 21.5795C75.3582 21.9195 74.9395 22.2402 74.4622 22.5416C73.9849 22.8429 73.4684 23.1018 72.9129 23.3182C72.3573 23.5345 71.7782 23.7084 71.1757 23.8397C70.5732 23.9711 69.9667 24.0368 69.3564 24.0368C68.1513 24.0368 67.1341 23.8088 66.3046 23.3529C65.4752 22.897 64.8062 22.2904 64.2975 21.5332C63.7889 20.7759 63.4211 19.9028 63.1942 18.9137C62.9673 17.9246 62.8538 16.8969 62.8538 15.8305C62.8538 14.4396 63.0299 13.2226 63.382 12.1794C63.7341 11.1363 64.2115 10.267 64.814 9.57151C65.4165 8.87606 66.1247 8.35448 66.9385 8.00675C67.7523 7.65903 68.6208 7.48517 69.5442 7.48517C70.4832 7.48517 71.3361 7.6088 72.103 7.85607C72.8698 8.10334 73.5232 8.44334 74.0631 8.87606C74.6031 9.30878 75.0178 9.81878 75.3073 10.406C75.5968 10.9933 75.7416 11.6269 75.7416 12.3069C75.7416 13.6824 75.0295 14.3701 73.6054 14.3701C73.1828 14.3701 72.7055 14.3005 72.1734 14.1615ZM90.7186 22.785C90.1865 23.5268 89.3571 23.8977 88.2303 23.8977C87.5886 23.8977 87.1074 23.7354 86.7866 23.4109C86.4657 23.0864 86.188 22.5377 85.9532 21.765L85.0612 19.0528C84.8264 18.3264 84.5447 17.8087 84.2161 17.4996C83.8874 17.1905 83.4414 17.036 82.878 17.036C82.6902 17.036 82.3459 17.0514 81.8451 17.0823V23.6891C81.3599 23.7818 80.7339 23.8282 79.9671 23.8282C79.2002 23.8282 78.5742 23.7818 78.0891 23.6891V7.85607C78.5742 7.76335 79.2002 7.71698 79.9671 7.71698C80.7339 7.71698 81.3599 7.76335 81.8451 7.85607V13.976L82.4554 13.9528C82.7371 13.9528 82.9406 13.9026 83.0658 13.8021C83.191 13.7017 83.3397 13.4892 83.5118 13.1646L85.7419 9.01515C85.9767 8.53607 86.2271 8.19993 86.4931 8.00675C86.7592 7.81357 87.1739 7.71698 87.7373 7.71698C88.3633 7.71698 89.091 7.75562 89.9205 7.83289L90.1318 8.08789L87.2678 13.4196C86.9079 14.1305 86.4697 14.6946 85.9532 15.1119C86.6888 15.2664 87.2404 15.5601 87.6082 15.9928C87.976 16.4255 88.2851 17.0051 88.5355 17.7314L89.4979 20.6059C89.6231 20.9614 89.717 21.2241 89.7796 21.3941C89.8422 21.5641 89.9987 21.85 90.2491 22.2518C90.3587 22.4064 90.5152 22.5841 90.7186 22.785ZM96.3526 19.0064L96.3292 20.6755V20.6987C97.0491 20.6677 97.6281 20.6523 98.0663 20.6523H103.513C103.513 21.2241 103.489 21.6645 103.442 21.9736C103.254 23.1636 102.456 23.7586 101.048 23.7586H94.8033C94.1303 23.7586 93.6021 23.5654 93.2187 23.1791C92.8353 22.7927 92.6436 22.2673 92.6436 21.6027V8.01834L92.8079 7.85607H102.926C103.02 8.30425 103.066 8.79106 103.066 9.31651C103.066 9.84196 102.957 10.3906 102.738 10.9624H96.3292L96.3526 12.6315V14.2542C96.7595 14.2387 97.2916 14.231 97.9489 14.231H101.541C101.681 14.6637 101.752 15.1583 101.752 15.7146C101.752 16.271 101.681 16.781 101.541 17.2446H96.3526V19.0064ZM118.748 7.6938L118.912 7.85607V23.6195C118.286 23.7586 117.547 23.8282 116.694 23.8282C115.841 23.8282 115.086 23.7818 114.428 23.6891L110.743 15.3901C110.305 14.4474 109.859 13.3578 109.405 12.1215L109.334 12.1447C109.522 14.401 109.616 16.7114 109.616 19.0759V23.6891C109.131 23.7818 108.544 23.8282 107.855 23.8282C107.167 23.8282 106.588 23.7818 106.118 23.6891V7.92562C106.713 7.78653 107.429 7.71698 108.266 7.71698C109.103 7.71698 109.851 7.76335 110.508 7.85607L114.147 16.1319C114.804 17.6619 115.289 18.8364 115.602 19.6555L115.696 19.6091C115.508 17.461 115.414 15.1814 115.414 12.7706V9.94241C115.414 9.13879 115.579 8.56311 115.907 8.21539C116.236 7.86766 116.768 7.6938 117.504 7.6938H118.748ZM132.833 22.6691C132.332 23.0709 131.675 23.3645 130.861 23.55C130.047 23.7354 129.147 23.8282 128.161 23.8282C127.676 23.8282 126.976 23.8204 126.06 23.805C125.145 23.7895 123.998 23.7663 122.621 23.7354L122.457 23.5732V7.97198L122.621 7.80971C123.529 7.7788 124.472 7.75562 125.45 7.74017C126.428 7.72471 127.457 7.71698 128.537 7.71698C129.867 7.71698 130.978 7.92562 131.87 8.34289C132.762 8.76015 133.474 9.33196 134.007 10.0583C134.539 10.7847 134.914 11.6385 135.133 12.6199C135.352 13.6012 135.462 14.656 135.462 15.7842C135.462 17.3296 135.282 18.6664 134.922 19.7946C134.562 20.9227 133.866 21.8809 132.833 22.6691ZM128.513 20.9305C130.579 20.9305 131.612 19.215 131.612 15.7842C131.612 12.3378 130.579 10.6147 128.513 10.6147H127.187C127.187 10.6147 126.854 10.607 126.189 10.5915V20.9536C126.471 20.9382 126.804 20.9305 127.187 20.9305H128.513ZM153.655 22.6691C153.154 23.0709 152.497 23.3645 151.683 23.55C150.869 23.7354 149.97 23.8282 148.984 23.8282C148.498 23.8282 147.798 23.8204 146.883 23.805C145.967 23.7895 144.821 23.7663 143.443 23.7354L143.279 23.5732V7.97198L143.443 7.80971C144.351 7.7788 145.294 7.75562 146.272 7.74017C147.25 7.72471 148.279 7.71698 149.359 7.71698C150.689 7.71698 151.801 7.92562 152.693 8.34289C153.585 8.76015 154.297 9.33196 154.829 10.0583C155.361 10.7847 155.737 11.6385 155.956 12.6199C156.175 13.6012 156.284 14.656 156.284 15.7842C156.284 17.3296 156.104 18.6664 155.744 19.7946C155.384 20.9227 154.688 21.8809 153.655 22.6691ZM149.336 20.9305C151.401 20.9305 152.434 19.215 152.434 15.7842C152.434 12.3378 151.401 10.6147 149.336 10.6147H148.009C148.009 10.6147 147.677 10.607 147.012 10.5915V20.9536C147.293 20.9382 147.626 20.9305 148.009 20.9305H149.336ZM170.44 12.7474C170.44 13.2574 170.361 13.7403 170.205 14.1962C170.048 14.6521 169.841 15.0617 169.583 15.4248C169.325 15.788 169.019 16.1048 168.667 16.3753C168.315 16.6457 167.951 16.8505 167.576 16.9896C168.39 17.2832 168.992 17.9941 169.383 19.1223L170.088 21.0927C170.354 21.8655 170.745 22.4373 171.261 22.8082C171.027 23.1173 170.674 23.3761 170.205 23.5848C169.735 23.7934 169.219 23.8977 168.656 23.8977C168.092 23.8977 167.654 23.7393 167.341 23.4225C167.028 23.1057 166.738 22.5532 166.472 21.765L165.627 19.3309C165.455 18.8673 165.224 18.5119 164.935 18.2646C164.645 18.0173 164.211 17.8937 163.632 17.8937H162.669V23.6891C162.169 23.7818 161.543 23.8282 160.791 23.8282C160.04 23.8282 159.422 23.7818 158.937 23.6891V7.97198L159.101 7.80971C160.463 7.7788 161.609 7.75562 162.54 7.74017C163.472 7.72471 164.203 7.71698 164.735 7.71698C165.596 7.71698 166.379 7.8213 167.083 8.02993C167.787 8.23857 168.386 8.55152 168.879 8.96879C169.372 9.38606 169.755 9.9115 170.029 10.5451C170.303 11.1788 170.44 11.9128 170.44 12.7474ZM162.669 10.4988V15.0424C163.374 15.0424 163.976 15.0308 164.477 15.0076C164.978 14.9844 165.381 14.8917 165.686 14.7294C165.991 14.5671 166.222 14.3392 166.379 14.0455C166.535 13.7519 166.613 13.3269 166.613 12.7706C166.613 11.2715 165.878 10.522 164.407 10.522H163.432C163.432 10.522 163.178 10.5142 162.669 10.4988ZM176.543 19.3773C176.966 20.5827 177.819 21.1855 179.102 21.1855C179.744 21.1855 180.264 21.0271 180.663 20.7102C181.062 20.3934 181.375 19.9916 181.602 19.5048C181.829 19.018 181.982 18.4732 182.06 17.8705C182.138 17.2678 182.177 16.6728 182.177 16.0855C182.177 15.5446 182.158 14.9419 182.119 14.2774C182.079 13.6128 181.966 12.9908 181.778 12.4112C181.59 11.8317 181.293 11.3449 180.886 10.9508C180.479 10.5567 179.884 10.3597 179.102 10.3597C178.351 10.3597 177.776 10.549 177.377 10.9276C176.977 11.3063 176.68 11.7738 176.485 12.3301C176.289 12.8865 176.168 13.4776 176.121 14.1035C176.074 14.7294 176.05 15.2819 176.05 15.761C176.05 16.4719 176.085 17.1055 176.156 17.6619C176.226 18.2182 176.355 18.79 176.543 19.3773ZM174.642 22.5764C172.967 21.2009 172.13 18.9369 172.13 15.7842C172.13 14.4242 172.29 13.2303 172.611 12.2026C172.932 11.1749 173.394 10.3133 173.996 9.61787C174.599 8.92242 175.33 8.39698 176.191 8.04153C177.052 7.68608 178.022 7.50835 179.102 7.50835C180.182 7.50835 181.156 7.68608 182.025 8.04153C182.893 8.39698 183.629 8.92629 184.231 9.62946C184.834 10.3326 185.295 11.1981 185.616 12.2258C185.937 13.2535 186.098 14.4396 186.098 15.7842C186.098 17.1287 185.937 18.3148 185.616 19.3425C185.295 20.3702 184.834 21.2318 184.231 21.9273C183.629 22.6227 182.893 23.1482 182.025 23.5036C181.156 23.8591 180.182 24.0368 179.102 24.0368C177.318 24.0368 175.831 23.55 174.642 22.5764ZM194.337 18.7282H192.483V23.6891C191.982 23.7818 191.356 23.8282 190.605 23.8282C189.838 23.8282 189.212 23.7818 188.727 23.6891V7.97198L188.891 7.80971C190.253 7.7788 191.383 7.75562 192.283 7.74017C193.183 7.72471 193.868 7.71698 194.337 7.71698C195.198 7.71698 195.984 7.83289 196.696 8.06471C197.409 8.29652 198.015 8.64425 198.516 9.10788C199.017 9.57151 199.404 10.1472 199.678 10.8349C199.952 11.5226 200.089 12.3147 200.089 13.211C200.089 14.1074 199.948 14.8994 199.666 15.5871C199.384 16.2748 198.993 16.8505 198.492 17.3141C197.992 17.7778 197.385 18.1294 196.673 18.3689C195.961 18.6084 195.182 18.7282 194.337 18.7282ZM192.483 10.5451V15.9464C192.921 15.931 193.269 15.9194 193.527 15.9117C193.786 15.9039 193.954 15.9001 194.032 15.9001C194.455 15.9001 194.807 15.8267 195.088 15.6798C195.37 15.533 195.597 15.3398 195.769 15.1003C195.941 14.8608 196.067 14.5787 196.145 14.2542C196.223 13.9296 196.262 13.5896 196.262 13.2342C196.262 12.8942 196.223 12.5619 196.145 12.2374C196.067 11.9128 195.945 11.6269 195.781 11.3797C195.617 11.1324 195.401 10.9354 195.135 10.7885C194.869 10.6417 194.556 10.5683 194.196 10.5683H193.234C193.234 10.5683 192.984 10.5606 192.483 10.5451Z" fill="#D9D9D9"/>
<path d="M23.907 19.2195C23.907 17.7679 23.6803 16.3843 23.1925 15.1004C20.6006 7.32369 13.7263 5.78031 12.0793 0C10.4538 5.78031 3.45125 7.32369 0.859049 15.1004C0.371295 16.3846 0.0912697 17.7683 0.0912697 19.2195C0.064751 20.4075 0.238701 21.4833 0.559767 22.4567C1.99209 27.3876 6.60035 31.0028 12.079 31.01C17.6217 31.0028 22.0854 27.3876 23.5183 22.4567C23.8394 21.4833 23.9335 20.4075 23.907 19.2195ZM5.73912 22.3891C7.35013 26.9203 1.55422 26.782 0.968597 20.6296C0.375714 12.5554 6.5631 8.33618 8.36037 6.49324C8.44687 6.39277 8.53432 6.2957 8.62177 6.20453C8.55073 6.29291 8.46076 6.39028 8.36037 6.49324C5.78269 9.49162 3.68487 16.6103 5.73912 22.3891Z" fill="#D9D9D9"/>
</svg>
